<svg xmlns="http://www.w3.org/2000/svg" width="500" height="500" style="width:100%;height:100%"><defs><clipPath id="a"><path d="M0 0h500v500H0z"/></clipPath></defs><g clip-path="url(#a)"><path stroke-linecap="round" stroke-linejoin="round" stroke="#E8392F" stroke-width="12.950000000000001" d="M311.709 347.994H96.332v-98.316c0-54.297 44.015-98.313 98.312-98.313H311.71c54.297 0 98.316 44.016 98.316 98.313v.004c0 54.297-44.019 98.312-98.316 98.312z" fill="none" display="block"/><g display="block"><path fill="#E8392F" d="M184.325 234.414c9.113 0 16.511 7.398 16.511 16.511s-7.398 16.511-16.511 16.511-16.511-7.398-16.511-16.511 7.398-16.511 16.511-16.511z"/><path d="M184.325 234.414c9.113 0 16.511 7.398 16.511 16.511s-7.398 16.511-16.511 16.511-16.511-7.398-16.511-16.511 7.398-16.511 16.511-16.511z" fill="none"/></g><g display="block"><path fill="#E8392F" d="M252.08 234.414c9.112 0 16.51 7.398 16.51 16.511s-7.398 16.511-16.51 16.511c-9.113 0-16.512-7.398-16.512-16.511s7.399-16.511 16.511-16.511z"/><path d="M252.08 234.414c9.112 0 16.51 7.398 16.51 16.511s-7.398 16.511-16.51 16.511c-9.113 0-16.512-7.398-16.512-16.511s7.399-16.511 16.511-16.511z" fill="none"/></g><g display="block"><path fill="#E8392F" d="M318.45 234.414c9.113 0 16.511 7.398 16.511 16.511s-7.398 16.511-16.511 16.511-16.511-7.398-16.511-16.511 7.398-16.511 16.511-16.511z"/><path d="M318.45 234.414c9.113 0 16.511 7.398 16.511 16.511s-7.398 16.511-16.511 16.511-16.511-7.398-16.511-16.511 7.398-16.511 16.511-16.511z" fill="none"/></g></g></svg>