<svg height="512" viewBox="0 0 512 512" width="512" xmlns="http://www.w3.org/2000/svg" xmlns:xlink="http://www.w3.org/1999/xlink"><linearGradient id="linear-gradient" gradientUnits="userSpaceOnUse" x1="9" x2="516.823" y1="503" y2="-4.823"><stop offset="0" stop-color="#003f8a"/><stop offset=".518" stop-color="#00d7df"/><stop offset="1" stop-color="#006df0"/></linearGradient><linearGradient id="linear-gradient-2" x1="-153" x2="354.823" xlink:href="#linear-gradient" y1="341" y2="-166.823"/><linearGradient id="linear-gradient-3" x1="-129" x2="378.823" xlink:href="#linear-gradient" y1="365" y2="-142.823"/><linearGradient id="linear-gradient-4" x1="-105" x2="402.823" xlink:href="#linear-gradient" y1="389" y2="-118.823"/><linearGradient id="linear-gradient-5" x1="26.653" x2="534.476" xlink:href="#linear-gradient" y1="520.653" y2="12.829"/><linearGradient id="linear-gradient-6" x1="-21" x2="486.823" xlink:href="#linear-gradient" y1="473" y2="-34.823"/><linearGradient id="linear-gradient-7" x1="3" x2="510.823" xlink:href="#linear-gradient" y1="497" y2="-10.823"/><g id="Online_shopping" data-name="Online shopping"><path d="m464 96h-416a40.045 40.045 0 0 0 -40 40v240a40.045 40.045 0 0 0 40 40h416a40.045 40.045 0 0 0 40-40v-240a40.045 40.045 0 0 0 -40-40zm-440 40a24.027 24.027 0 0 1 24-24h416a24.027 24.027 0 0 1 24 24v8h-464zm464 240a24.027 24.027 0 0 1 -24 24h-416a24.027 24.027 0 0 1 -24-24v-216h464z" fill="url(#linear-gradient)"/><path d="m72 120h-24a8 8 0 0 0 0 16h24a8 8 0 0 0 0-16z" fill="url(#linear-gradient-2)"/><path d="m120 120h-24a8 8 0 0 0 0 16h24a8 8 0 0 0 0-16z" fill="url(#linear-gradient-3)"/><path d="m168 120h-24a8 8 0 0 0 0 16h24a8 8 0 0 0 0-16z" fill="url(#linear-gradient-4)"/><path d="m216 352h80a24.028 24.028 0 0 0 24-24v-80a8 8 0 0 0 -8-8h-24v-8a24.027 24.027 0 0 0 -24-24h-16a24.027 24.027 0 0 0 -24 24v8h-24a8 8 0 0 0 -8 8v80a24.028 24.028 0 0 0 24 24zm24-120a8.009 8.009 0 0 1 8-8h16a8.009 8.009 0 0 1 8 8v8h-32zm-32 24h16v8a8 8 0 0 0 16 0v-8h32v8a8 8 0 0 0 16 0v-8h16v72a8.009 8.009 0 0 1 -8 8h-80a8.009 8.009 0 0 1 -8-8z" fill="url(#linear-gradient-5)"/><path d="m56 384h40a8 8 0 0 0 0-16h-40a8 8 0 0 0 0 16z" fill="url(#linear-gradient-6)"/><path d="m120 384h8a8 8 0 0 0 0-16h-8a8 8 0 0 0 0 16z" fill="url(#linear-gradient-7)"/></g></svg>